<?xml version="1.0" standalone="no"?>
<!DOCTYPE svg PUBLIC "-//W3C//DTD SVG 20010904//EN"
 "http://www.w3.org/TR/2001/REC-SVG-20010904/DTD/svg10.dtd">
<svg version="1.0" xmlns="http://www.w3.org/2000/svg"
 width="640.000000pt" height="640.000000pt" viewBox="0 0 640.000000 640.000000"
 preserveAspectRatio="xMidYMid meet">

<g transform="translate(0.000000,640.000000) scale(0.100000,-0.100000)"
fill="#000000" stroke="none">
<path d="M2587 4478 c-56 -57 -193 -238 -215 -286 -47 -102 -39 -224 20 -330
17 -29 29 -55 27 -56 -25 -22 -171 -108 -243 -142 -149 -70 -270 -90 -370 -60
-111 34 -166 100 -240 292 -74 193 -142 241 -283 199 -18 -6 -22 -2 -27 27
-24 124 -67 189 -137 208 -69 19 -151 -17 -184 -80 -52 -101 -37 -212 55 -393
l60 -118 -30 -112 c-61 -229 -98 -564 -83 -754 6 -81 6 -82 -35 -160 -72 -138
-96 -223 -96 -343 -1 -93 2 -111 25 -160 64 -137 223 -227 489 -275 135 -25
817 -36 1915 -32 1074 3 1078 4 1395 67 494 99 812 263 915 474 43 88 59 167
52 271 -6 105 -35 181 -97 248 -83 91 -145 116 -430 177 -376 80 -626 160
-883 279 l-88 41 21 30 c43 61 -22 98 -70 40 l-25 -31 -103 56 -102 57 25 30
c30 35 29 55 -2 75 -21 14 -25 13 -59 -25 l-36 -40 -81 50 c-116 73 -115 72
-89 107 25 34 27 52 10 69 -20 20 -46 13 -70 -18 -12 -16 -25 -30 -29 -30 -4
0 -46 32 -94 71 -82 68 -85 72 -69 90 24 26 11 69 -20 69 -13 0 -29 -7 -36
-15 -7 -8 -17 -15 -22 -15 -5 0 -71 53 -146 118 -394 339 -410 352 -453 352
-28 0 -47 -7 -62 -22z m325 -270 c139 -119 262 -226 273 -238 l20 -23 -44 23
c-103 52 -174 72 -256 73 -115 1 -176 -20 -307 -109 -84 -57 -113 -72 -120
-62 -55 81 -72 182 -44 265 11 33 49 91 114 171 53 67 100 121 104 119 3 -1
120 -99 260 -219z m-1788 31 c29 -23 54 -97 57 -169 2 -33 -4 -55 -23 -85 -14
-22 -34 -61 -46 -87 -11 -27 -23 -48 -26 -48 -3 0 -22 32 -41 70 -38 75 -65
165 -65 215 0 62 51 124 101 125 9 0 28 -9 43 -21z m300 -241 c22 -23 48 -72
81 -157 64 -165 114 -233 211 -282 92 -47 168 -57 281 -36 133 25 272 89 435
198 l56 38 454 -225 c968 -483 994 -494 1145 -494 142 0 237 37 335 128 36 33
53 43 70 39 13 -3 104 -27 203 -55 99 -27 251 -65 337 -83 87 -19 158 -37 158
-41 0 -18 -58 -72 -101 -94 -67 -33 -133 -49 -312 -75 -201 -28 -324 -60 -424
-109 -146 -72 -248 -191 -295 -344 l-21 -69 -121 7 c-241 14 -351 32 -776 132
-457 107 -640 134 -948 137 l-193 2 -10 40 c-62 247 -151 414 -307 577 -127
133 -310 257 -493 335 -49 20 -89 43 -89 50 0 28 64 212 95 273 68 134 160
177 229 108z m1634 -67 c45 -18 82 -37 82 -42 0 -5 -25 -43 -55 -83 -30 -40
-55 -78 -55 -84 0 -15 40 -42 54 -36 6 2 38 40 71 84 33 44 64 80 68 80 5 0
53 -23 107 -52 l99 -51 -34 -46 c-82 -109 -89 -122 -78 -139 22 -37 50 -26
100 39 26 34 57 73 68 85 l20 23 95 -56 c52 -31 97 -57 99 -59 2 -2 -22 -37
-53 -80 -59 -80 -64 -92 -44 -112 25 -25 48 -11 109 68 l62 79 76 -41 c42 -23
88 -49 103 -58 l27 -16 -55 -72 c-56 -72 -64 -102 -29 -116 26 -10 42 4 99 79
l56 74 112 -53 c62 -29 139 -63 171 -75 31 -13 57 -26 57 -30 0 -3 -20 -20
-43 -37 -139 -104 -270 -117 -454 -47 -76 30 -1332 645 -1332 653 -2 13 179
125 228 142 79 26 164 19 269 -21z m-1898 -436 c175 -75 353 -197 476 -327
128 -133 236 -341 278 -530 l6 -28 -148 0 c-284 0 -486 35 -637 109 -125 62
-120 50 -119 275 0 105 6 227 12 271 13 91 45 265 48 265 1 0 39 -16 84 -35z
m4188 -512 c106 -53 172 -157 172 -269 0 -50 -2 -55 -42 -87 -178 -144 -679
-263 -1195 -284 l-162 -6 10 39 c36 130 134 246 259 307 96 47 152 61 385 98
212 33 291 51 347 80 53 27 113 83 128 119 15 37 30 37 98 3z m-4142 -377
c175 -61 376 -80 749 -71 424 11 649 -13 1085 -116 529 -124 674 -147 970
-156 513 -15 1092 79 1386 227 106 53 111 54 102 30 -90 -240 -501 -430 -1105
-511 -275 -36 -495 -40 -1743 -30 -991 9 -1200 13 -1279 26 -175 29 -276 62
-359 117 -60 41 -81 65 -110 127 -22 48 -24 62 -19 140 5 91 38 199 83 278
l24 42 74 -40 c40 -21 104 -50 142 -63z"/>
</g>
</svg>
