<?xml version="1.0" encoding="UTF-8"?>
<svg version="1.1" xmlns="http://www.w3.org/2000/svg" width="640" height="640">
<path d="M0 0 C211.2 0 422.4 0 640 0 C640 211.2 640 422.4 640 640 C428.8 640 217.6 640 0 640 C0 428.8 0 217.6 0 0 Z " fill="#FEFEFE" transform="translate(0,0)"/>
<path d="M0 0 C3.33143141 2.23851122 6.09377195 4.7575472 7.9765625 8.328125 C8.38493039 10.64950201 8.73010967 12.98402249 8.9765625 15.328125 C9.53827148 15.46798828 10.09998047 15.60785156 10.67871094 15.75195312 C36.31626074 22.22114419 60.33388106 31.37852675 80.9765625 48.328125 C81.8111499 49.00464111 81.8111499 49.00464111 82.66259766 49.69482422 C118.937331 79.22867797 138.9192998 121.08334778 143.9765625 167.328125 C145.98731155 187.77835686 149.47777405 223.72181404 137.5390625 241.703125 C133.23670739 246.1104156 130.02487517 246.6062568 124.07421875 246.70825195 C105.2961223 246.67368498 87.25041898 243.39238642 69.0546875 238.90356445 C62.58343652 237.23513812 62.58343652 237.23513812 55.9765625 237.328125 C53.6897249 239.10605839 53.6897249 239.10605839 51.7890625 241.640625 C44.53744395 250.2595521 36.5629969 258.04966 27.9765625 265.328125 C27.09226562 266.11316406 26.20796875 266.89820313 25.296875 267.70703125 C-3.06544449 292.66383094 -37.6100204 313.1117762 -76.33789062 311.51904297 C-88.6852422 310.64125852 -100.0310876 305.7103484 -111.0234375 300.328125 C-111.68923828 300.00215332 -112.35503906 299.67618164 -113.04101562 299.34033203 C-122.75868224 294.51189566 -131.96030302 288.9631837 -141.15063477 283.20556641 C-158.8599264 272.14109984 -177.21924537 262.29260166 -196.8984375 255.203125 C-197.73681152 254.89544189 -198.57518555 254.58775879 -199.43896484 254.27075195 C-205.19335981 252.19763689 -205.19335981 252.19763689 -211.0234375 253.328125 C-213.38120271 254.93634488 -215.59892581 256.56811449 -217.8359375 258.328125 C-234.20765157 270.75940416 -253.8138449 282.63808063 -275.0234375 280.328125 C-278.67613511 278.87053025 -281.05269268 276.88529246 -283.16796875 273.4921875 C-284.20237363 270.8754738 -284.35906582 268.76426303 -284.3984375 265.953125 C-284.42679687 265.03789062 -284.45515625 264.12265625 -284.484375 263.1796875 C-282.2384213 249.28522818 -261.88863027 236.8144132 -251.37744141 229.07470703 C-247.99337608 226.56385832 -244.65408425 223.99583008 -241.31054688 221.43139648 C-232.05573985 214.33666685 -222.71258498 207.3704912 -213.3046875 200.48046875 C-210.59862455 198.49606271 -207.90988429 196.49271761 -205.2421875 194.45703125 C-204.68023682 194.02898193 -204.11828613 193.60093262 -203.53930664 193.15991211 C-202.08174213 192.04548962 -200.6285587 190.92534332 -199.17578125 189.8046875 C-197.0234375 188.328125 -197.0234375 188.328125 -195.0234375 188.328125 C-195.04301514 187.74401855 -195.06259277 187.15991211 -195.08276367 186.55810547 C-195.2099226 179.70228789 -194.46059088 173.20790934 -193.3359375 166.453125 C-193.15659668 165.36249756 -192.97725586 164.27187012 -192.79248047 163.14819336 C-185.99700789 123.22843133 -171.00693912 87.00293716 -143.0234375 57.328125 C-142.40210938 56.65394531 -141.78078125 55.97976562 -141.140625 55.28515625 C-129.73343989 43.32908985 -115.53916065 34.51595345 -100.8984375 27.078125 C-100.27799561 26.76085449 -99.65755371 26.44358398 -99.01831055 26.11669922 C-89.50078681 21.40681814 -79.5875549 18.5356402 -69.2734375 16.140625 C-68.18933594 15.88087891 -67.10523438 15.62113281 -65.98828125 15.35351562 C-57.40884991 13.32650712 -49.39538318 12.17334233 -40.5859375 12.265625 C-39.75900391 12.27013672 -38.93207031 12.27464844 -38.08007812 12.27929688 C-36.06116604 12.29096689 -34.04229176 12.30889782 -32.0234375 12.328125 C-31.89066406 11.39226562 -31.75789062 10.45640625 -31.62109375 9.4921875 C-30.78428295 5.0620127 -29.01740221 2.80317841 -25.40234375 0.12890625 C-17.57174248 -4.5108471 -7.98257674 -4.12191235 0 0 Z " fill="#0C0C0C" transform="translate(390.0234375,165.671875)"/>
<path d="M0 0 C1.5496006 0.91108439 3.07387789 1.86735868 4.5625 2.875 C5.17351562 3.28621094 5.78453125 3.69742188 6.4140625 4.12109375 C29.20758136 21.65857287 37.10820536 55.91637676 40.97753906 82.70825195 C45.54981155 118.41859877 46.03547254 164.45608239 34.5625 198.875 C22.56544696 197.32352451 11.02798611 193.76492515 -0.50708008 190.23217773 C-7.96851604 187.96784657 -15.48881201 185.97650013 -23.04516602 184.05517578 C-28.08480615 182.7696045 -33.08880056 181.40559253 -38.08203125 179.94921875 C-45.36867906 177.85227018 -52.7051486 176.0476151 -60.08618164 174.32006836 C-62.23924677 173.81502239 -64.3901354 173.30137041 -66.54101562 172.78710938 C-74.68530076 170.86057769 -82.83177754 169.18643424 -91.09150696 167.8290863 C-96.2425054 166.9724973 -96.2425054 166.9724973 -98.4375 165.875 C-100.10022703 165.67277644 -101.76804185 165.51088613 -103.4375 165.375 C-108.21527778 164.98611111 -108.21527778 164.98611111 -110.4375 163.875 C-109.92329766 154.97920818 -108.81352833 146.37090565 -107.125 137.625 C-106.89917236 136.44115723 -106.67334473 135.25731445 -106.44067383 134.03759766 C-105.78599189 130.64732181 -105.11649424 127.26048217 -104.4375 123.875 C-104.27378906 123.05418945 -104.11007812 122.23337891 -103.94140625 121.38769531 C-95.73670462 81.21733093 -78.31420351 34.6916809 -43.66015625 9.9453125 C-30.76961668 1.66411738 -15.39578343 -7.33244816 0 0 Z " fill="#FDFDFD" transform="translate(384.4375,187.125)"/>
<path d="M0 0 C0.69871216 0.16381165 1.39742432 0.32762329 2.11730957 0.49639893 C10.27509223 2.41989433 18.35550333 4.53714348 26.40478516 6.87939453 C32.40988378 8.60225876 38.45806836 10.16225857 44.5 11.75 C55.67116815 14.70049447 66.76093124 17.85530286 77.80712891 21.24316406 C86.80623583 23.99283215 95.8374596 26.41934163 105.01635742 28.48095703 C109.06043924 29.39872861 112.96458023 30.49413302 116.875 31.875 C115.48870756 34.99824544 113.87988429 37.11690707 111.4609375 39.51953125 C110.44193359 40.53563477 110.44193359 40.53563477 109.40234375 41.57226562 C108.33693359 42.61930664 108.33693359 42.61930664 107.25 43.6875 C106.56292969 44.37392578 105.87585938 45.06035156 105.16796875 45.76757812 C100.56351861 50.33315392 95.80726805 54.66722122 90.875 58.875 C89.98941406 59.63671509 89.98941406 59.63671509 89.0859375 60.41381836 C70.67903475 76.1175916 50.92417834 88.81999502 28.4375 97.75 C27.71602783 98.03673584 26.99455566 98.32347168 26.2512207 98.61889648 C5.05104119 106.71803328 -15.90218764 103.49399229 -36.15014648 94.45214844 C-48.85153442 88.5372384 -60.67684801 81.26485687 -72.5703125 73.90625 C-85.97331435 65.62033791 -99.71322125 58.24762653 -114.125 51.875 C-115.07753662 51.44960938 -115.07753662 51.44960938 -116.04931641 51.015625 C-125.86051145 46.68572992 -135.65614711 44.0547011 -146.125 41.875 C-147.03121094 41.648125 -147.93742187 41.42125 -148.87109375 41.1875 C-161.00918285 38.39088427 -174.86108492 39.07360237 -187.125 40.875 C-183.07009547 36.60542406 -178.66280826 33.02419782 -174 29.4375 C-173.21230225 28.82841797 -172.42460449 28.21933594 -171.61303711 27.59179688 C-163.69370266 21.49506071 -155.65015319 15.57092571 -147.58203125 9.67333984 C-143.27617967 6.5218193 -138.98251271 3.3537667 -134.6875 0.1875 C-133.88836182 -0.40095703 -133.08922363 -0.98941406 -132.26586914 -1.59570312 C-131.51942139 -2.14548828 -130.77297363 -2.69527344 -130.00390625 -3.26171875 C-129.3497876 -3.74342529 -128.69566895 -4.22513184 -128.02172852 -4.72143555 C-126.68788393 -5.70847024 -125.37087277 -6.71846145 -124.06689453 -7.74462891 C-96.10733269 -27.61932876 -30.08865684 -7.06499766 0 0 Z " fill="#FDFDFD" transform="translate(322.125,367.125)"/>
<path d="M0 0 C27.8263383 6.69662252 53.2995024 18.11193803 75 37 C75.92683594 37.79277344 76.85367188 38.58554688 77.80859375 39.40234375 C100.52370101 59.34501074 115.98127754 87.58515001 123.8125 116.5625 C123.99522461 117.23192627 124.17794922 117.90135254 124.36621094 118.59106445 C128.37492492 134.52774024 129.54134166 150.37066166 129.4375 166.75 C129.43578796 167.7085791 129.43407593 168.6671582 129.43231201 169.65478516 C129.32360559 205.12118061 129.32360559 205.12118061 123 216 C101.34368307 226.82815847 50.87379798 208.05291852 29 201 C28.87900095 195.11137964 29.24552519 189.67229529 30.3125 183.875 C37.397352 141.03586165 38.892119 95.28964421 28 53 C27.75378906 52.04222656 27.50757813 51.08445313 27.25390625 50.09765625 C22.60336538 33.46606093 14.34627635 15.93025475 1.765625 3.85546875 C0 2 0 2 0 0 Z " fill="#FDFDFD" transform="translate(398,188)"/>
<path d="M0 0 C1.17175781 0.01353516 1.17175781 0.01353516 2.3671875 0.02734375 C2.94726562 0.03894531 3.52734375 0.05054688 4.125 0.0625 C1.68671308 2.68587141 -1.0069183 4.63820115 -3.9375 6.6875 C-32.41730505 27.35591495 -48.80708975 60.00821633 -58.875 93.0625 C-59.15794922 93.98708008 -59.44089844 94.91166016 -59.73242188 95.86425781 C-64.88051902 113.03413638 -68.2815947 130.48815015 -71.4921875 148.1015625 C-71.61790131 148.78707687 -71.74361511 149.47259125 -71.87313843 150.17887878 C-72.70025077 154.79498339 -73.32530089 159.40725593 -73.875 164.0625 C-74.83132324 163.9917627 -75.78764648 163.92102539 -76.77294922 163.84814453 C-86.14146496 163.18920787 -95.46079043 162.90418018 -104.8515625 162.93212891 C-107.03392195 162.9375848 -109.21608344 162.93208863 -111.3984375 162.92578125 C-112.80989628 162.92644071 -114.22135494 162.92771911 -115.6328125 162.9296875 C-116.8820752 162.93081543 -118.13133789 162.93194336 -119.41845703 162.93310547 C-122.66466663 163.05462624 -125.68518942 163.47591777 -128.875 164.0625 C-130.49894748 164.1245775 -132.12505297 164.14962041 -133.75 164.125 C-134.53117188 164.11597656 -135.31234375 164.10695313 -136.1171875 164.09765625 C-136.98730469 164.08025391 -136.98730469 164.08025391 -137.875 164.0625 C-137.4556431 136.34682099 -129.97539766 108.89195966 -117.875 84.0625 C-117.53098145 83.34465332 -117.18696289 82.62680664 -116.83251953 81.88720703 C-104.80662734 57.0336965 -86.16061465 35.91050369 -62.875 21.0625 C-61.82054687 20.38445312 -60.76609375 19.70640625 -59.6796875 19.0078125 C-42.74914269 8.72140584 -20.11250925 -0.30473499 0 0 Z " fill="#FCFCFC" transform="translate(340.875,185.9375)"/>
<path d="M0 0 C1.16080078 -0.00773437 2.32160156 -0.01546875 3.51757812 -0.0234375 C4.62681641 -0.02085937 5.73605469 -0.01828125 6.87890625 -0.015625 C7.87607666 -0.01336914 8.87324707 -0.01111328 9.90063477 -0.00878906 C12.4375 0.25 12.4375 0.25 15.4375 2.25 C7.84104184 8.07436433 0.09991029 13.21609548 -8.375 17.6875 C-9.15012939 18.09983887 -9.92525879 18.51217773 -10.72387695 18.93701172 C-17.78695087 22.58009462 -24.80625937 25.67681293 -32.875 25.6875 C-34.35419922 25.71650391 -34.35419922 25.71650391 -35.86328125 25.74609375 C-39.28932338 25.11641596 -40.45577197 23.97750403 -42.5625 21.25 C-43.20803817 17.8286477 -43.24641962 15.5486166 -41.59765625 12.41796875 C-35.60175773 4.44081681 -26.29667402 2.10345325 -16.87988281 0.63598633 C-11.2514464 -0.01889724 -5.66014971 -0.03887911 0 0 Z " fill="#FAFAFA" transform="translate(155.5625,413.75)"/>
<path d="M0 0 C4.3010159 2.83237633 4.3010159 2.83237633 5.5625 4.6875 C5.2325 6.0075 4.9025 7.3275 4.5625 8.6875 C-3.6875 8.0275 -11.9375 7.3675 -20.4375 6.6875 C-18.4375 1.6875 -18.4375 1.6875 -16.4375 -0.125 C-10.90272608 -2.31584801 -5.5275551 -2.11052104 0 0 Z " fill="#ECECEC" transform="translate(385.4375,171.3125)"/>
<path d="M0 0 C2.97 0 5.94 0 9 0 C6 3 6 3 3 4 C2.01 2.68 1.02 1.36 0 0 Z " fill="#DDDDDD" transform="translate(336,186)"/>
</svg>
