<?xml version="1.0" standalone="no"?>
<!DOCTYPE svg PUBLIC "-//W3C//DTD SVG 20010904//EN"
 "http://www.w3.org/TR/2001/REC-SVG-20010904/DTD/svg10.dtd">
<svg version="1.0" xmlns="http://www.w3.org/2000/svg"
 width="640.000000pt" height="640.000000pt" viewBox="0 0 640.000000 640.000000"
 preserveAspectRatio="xMidYMid meet">

<g transform="translate(0.000000,640.000000) scale(0.100000,-0.100000)"
fill="#000000" stroke="none">
<path d="M2252 5587 c-7 -8 -22 -66 -32 -129 -11 -63 -32 -148 -46 -189 -68
-196 -122 -435 -148 -659 -34 -293 -33 -368 44 -2590 35 -1002 41 -1135 50
-1150 10 -16 140 -48 255 -61 163 -19 455 7 492 44 6 7 16 59 22 117 104 978
265 2505 282 2670 12 118 24 222 27 230 2 8 42 -336 88 -765 45 -429 112
-1061 148 -1405 37 -344 72 -674 78 -733 13 -124 8 -118 120 -144 54 -12 121
-16 253 -16 178 0 249 8 360 45 l40 13 7 125 c4 69 16 386 28 705 93 2633 94
2717 29 3093 -23 140 -67 314 -113 459 -20 61 -45 159 -56 218 -10 60 -25 115
-33 122 -12 12 -38 11 -178 -11 -351 -54 -437 -61 -764 -61 -332 1 -530 18
-905 81 -26 4 -40 2 -48 -9z m1869 -139 c7 -43 11 -80 8 -83 -10 -9 -231 -56
-358 -75 -272 -41 -654 -54 -712 -25 -55 29 -65 97 -20 147 l29 33 234 7 c128
3 296 14 373 23 166 19 408 55 414 61 11 10 20 -16 32 -88z m-1630 58 c90 -13
227 -30 304 -36 198 -16 189 -14 169 -51 -16 -32 -16 -105 0 -141 7 -16 2 -18
-45 -18 -111 0 -373 38 -560 81 l-91 21 6 42 c4 22 10 60 13 84 4 30 10 42 23
42 9 0 90 -11 181 -24z m-139 -226 c206 -49 538 -90 725 -90 l94 0 -3 -537 -4
-538 -77 -715 c-71 -655 -103 -956 -202 -1890 -46 -431 -34 -385 -103 -399
-31 -7 -103 -15 -159 -18 l-101 -6 4 59 c3 32 18 352 35 709 16 358 43 936 59
1285 17 349 31 689 33 755 l2 120 -25 0 c-24 0 -25 -3 -32 -90 -4 -49 -17
-290 -28 -535 -19 -408 -47 -1027 -85 -1825 -8 -170 -17 -348 -21 -394 l-6
-84 -62 7 c-97 10 -227 38 -231 50 -4 11 -26 644 -81 2291 -30 918 -26 1072
41 1415 23 114 86 348 114 423 13 32 8 32 113 7z m1809 -7 c28 -73 80 -261
103 -371 38 -178 54 -296 67 -486 12 -177 9 -291 -31 -1481 -50 -1452 -61
-1781 -65 -1791 -4 -12 -134 -40 -231 -50 l-62 -7 -6 94 c-7 92 -35 694 -96
2014 -16 358 -33 688 -37 735 -8 82 -9 85 -33 85 l-25 0 3 -105 c2 -92 32
-771 62 -1390 6 -113 21 -452 35 -755 13 -302 27 -578 30 -612 l6 -63 -68 0
c-62 0 -242 26 -252 36 -4 4 -53 451 -191 1769 -50 473 -102 965 -115 1093
-14 128 -25 277 -25 331 l0 98 41 12 c53 16 121 84 137 137 8 29 12 131 12
333 0 160 1 291 3 291 239 20 476 54 617 89 103 26 109 25 121 -6z m-801 -373
c0 -311 -3 -333 -51 -377 -13 -12 -36 -26 -51 -32 l-28 -11 0 355 0 355 65 0
65 0 0 -290z m-1055 -3855 c151 -25 407 -20 508 11 15 5 17 -2 16 -48 -3 -104
-7 -111 -74 -125 -107 -23 -299 -27 -410 -9 -55 8 -117 20 -137 26 l-38 11 0
80 c0 72 2 80 18 75 9 -2 62 -12 117 -21z m1925 -54 l0 -79 -32 -11 c-119 -37
-419 -48 -548 -20 -64 15 -65 15 -72 54 -4 22 -7 58 -7 81 l-1 40 78 -12 c152
-25 365 -16 575 25 4 0 7 -35 7 -78z"/>
<path d="M3081 5366 c-23 -28 -2 -46 55 -46 58 0 78 16 54 45 -16 19 -93 20
-109 1z"/>
</g>
</svg>
