<?xml version="1.0" encoding="UTF-8"?>
<svg version="1.1" xmlns="http://www.w3.org/2000/svg" width="640" height="640">
<path d="M0 0 C211.2 0 422.4 0 640 0 C640 211.2 640 422.4 640 640 C428.8 640 217.6 640 0 640 C0 428.8 0 217.6 0 0 Z " fill="#FEFEFE" transform="translate(0,0)"/>
<path d="M0 0 C1.13888672 0.00563965 2.27777344 0.0112793 3.45117188 0.01708984 C30.22706779 0.40101453 55.69334287 10.21587427 76.25 27.3125 C77.17167969 28.07046875 78.09335937 28.8284375 79.04296875 29.609375 C101.60082294 49.08103475 116.96517084 78.71613446 120.25 108.3125 C120.33492441 112.15509755 120.26842817 115.9931377 120.21484375 119.8359375 C120.20881535 122.09634847 120.2056487 124.35676856 120.20507812 126.6171875 C120.2033595 130.15559844 120.18744297 133.69064492 120.12329102 137.22851562 C119.13251255 150.63969221 119.13251255 150.63969221 123.42871094 162.77612305 C125.93198292 165.00564247 128.37481913 166.61434011 131.25 168.3125 C140.1487457 178.0542253 143.77820844 189.1262795 143.49609375 202.203125 C142.51748513 214.56776731 137.44453045 226.77619097 128.25 235.3125 C121.07648093 241.271455 112.79848958 246.3125 103.25 246.3125 C103.064375 247.01375 102.87875 247.715 102.6875 248.4375 C100.13320122 253.54609755 95.7540553 256.88977615 90.5625 259.1875 C83.55684458 261.44125736 75.99941493 261.6348191 69.375 258.25 C62.86859625 254.06562802 58.64782893 248.69799396 56.25 241.3125 C55.975316 238.47232727 55.83851761 235.85852456 55.86181641 233.02563477 C55.85393097 231.82905746 55.85393097 231.82905746 55.84588623 230.60830688 C55.83275937 227.98996993 55.84139896 225.37224864 55.8515625 222.75390625 C55.84953946 220.92219426 55.8466261 219.09048305 55.84286499 217.2587738 C55.83845137 213.42658797 55.8448409 209.59461248 55.85888672 205.76245117 C55.87596589 200.86560827 55.86613935 195.96925918 55.84816933 191.07243443 C55.83729511 187.29160384 55.84079469 183.51088905 55.8485527 179.73005486 C55.85054529 177.92525104 55.84812872 176.1204365 55.84111404 174.31564522 C55.83344078 171.78640285 55.84518563 169.25794422 55.86181641 166.72875977 C55.85270737 165.6242321 55.85270737 165.6242321 55.84341431 164.49739075 C55.94130946 156.40542393 58.47748965 150.08501035 64.25 144.3125 C71.73922994 138.88976991 77.97700649 137.32985635 87.25 138.3125 C94.22798129 140.4827787 99.15088155 144.30751835 103.25 150.3125 C103.58 150.9725 103.91 151.6325 104.25 152.3125 C106.36327425 153.21975434 106.36327425 153.21975434 108.8125 153.9375 C109.63878906 154.19789063 110.46507812 154.45828125 111.31640625 154.7265625 C112.27353516 155.01660156 112.27353516 155.01660156 113.25 155.3125 C113.23023487 149.16360767 113.17750153 143.01607881 113.09741211 136.86767578 C113.07457061 134.78702269 113.0599182 132.70625954 113.05444336 130.62548828 C112.94349779 95.34479565 102.25522084 64.54126134 77.375 39.125 C55.36754708 17.34239531 26.77846865 7.94171961 -3.72631836 7.93701172 C-12.62491316 8.09431187 -20.29594142 9.55491204 -28.75 12.3125 C-29.78898437 12.61285156 -30.82796875 12.91320312 -31.8984375 13.22265625 C-49.10037368 18.43741643 -62.80589083 28.12587743 -75.75 40.3125 C-76.36488281 40.86292969 -76.97976562 41.41335937 -77.61328125 41.98046875 C-95.96039762 59.06226675 -108.04817959 86.76576864 -109.15332031 111.61352539 C-109.29616467 118.12006128 -109.19031196 124.61912995 -109.0625 131.125 C-109.03733571 133.38994879 -109.01453718 135.65492513 -108.99414062 137.91992188 C-108.93990674 143.384732 -108.85695124 148.84847999 -108.75 154.3125 C-102.72558455 152.90694069 -102.72558455 152.90694069 -98.8125 148.5 C-95.54060229 143.67548595 -91.4317647 140.47240555 -85.828125 138.70703125 C-78.18253022 137.25551795 -71.78407207 137.93264045 -64.9765625 141.7578125 C-59.58605599 145.52171003 -56.31305464 150.30159451 -53.75 156.3125 C-53.46544751 159.13336297 -53.32900289 161.72972082 -53.34594727 164.54589844 C-53.33908401 165.3500116 -53.33222076 166.15412476 -53.32514954 166.98260498 C-53.3069158 169.6292103 -53.3107155 172.27522059 -53.31640625 174.921875 C-53.31184143 176.77264599 -53.30653496 178.62341528 -53.30052185 180.47418213 C-53.29159642 184.35102222 -53.2940058 188.22765628 -53.30395508 192.10449219 C-53.31541919 197.05171139 -53.29526974 201.99821409 -53.26603794 206.9453392 C-53.24760932 210.76829487 -53.24798205 214.59108115 -53.25367546 218.41407013 C-53.25382799 220.23676811 -53.24784025 222.05947806 -53.23538399 223.88213348 C-53.11539647 244.32451435 -53.11539647 244.32451435 -59.609375 252.71484375 C-67.01187877 258.72555446 -73.14491069 261.00225984 -82.78515625 260.72265625 C-90.19342047 259.69779756 -95.13997128 255.50253511 -99.75390625 249.86328125 C-100.75 248.3125 -100.75 248.3125 -100.75 246.3125 C-101.86375 246.250625 -102.9775 246.18875 -104.125 246.125 C-113.9338101 244.86213732 -123.33054787 238.43444049 -129.69140625 231.0625 C-138.1113848 219.71462394 -141.938479 207.39011742 -140.75 193.3125 C-137.86152625 179.29927594 -130.79012017 167.33924678 -118.75 159.3125 C-118.29589717 157.35497793 -118.29589717 157.35497793 -118.36523438 155.07250977 C-118.35512329 154.19301163 -118.34501221 153.31351349 -118.33459473 152.40736389 C-118.33761597 151.44922287 -118.34063721 150.49108185 -118.34375 149.50390625 C-118.33291382 148.50858383 -118.32207764 147.51326141 -118.31091309 146.48777771 C-118.27655054 143.28345449 -118.26107402 140.07948319 -118.25 136.875 C-118.10641671 96.49375998 -109.36399136 63.21532538 -80.23046875 33.765625 C-58.42074722 12.1963256 -30.75452956 -0.16104257 0 0 Z " fill="#272526" transform="translate(318.75,189.6875)"/>
<path d="M0 0 C5.01864227 3.078871 8.15269525 6.42512552 10.5 11.89453125 C10.87808481 14.76029282 11.05899988 17.23504159 11.03344727 20.08959961 C11.04637062 21.27154655 11.04637062 21.27154655 11.05955505 22.47737122 C11.08212365 25.06338025 11.07549315 27.64829749 11.06640625 30.234375 C11.07164605 32.04366881 11.07792384 33.85295989 11.08518982 35.6622467 C11.09557733 39.4474069 11.09105662 43.23219077 11.07641602 47.01733398 C11.05923438 51.85391251 11.08272409 56.68930232 11.11790562 61.52574825 C11.13992875 65.26029749 11.13842623 68.99456446 11.1301403 72.7291584 C11.1293234 74.51164618 11.13613665 76.29415522 11.15091133 78.07658195 C11.27158255 95.26903185 11.27158255 95.26903185 5.5 101.89453125 C1.88136981 105.42490216 -2.00467289 107.18773764 -7.0625 107.39453125 C-11.95607324 107.07446966 -16.31445917 105.96412827 -19.97265625 102.5 C-24.67887421 97.08030294 -25.80088325 93.11642737 -25.82226562 86.0559082 C-25.83219543 85.26998795 -25.84212524 84.48406769 -25.85235596 83.67433167 C-25.88153666 81.07712275 -25.89519423 78.48015835 -25.90625 75.8828125 C-25.91776063 74.07162981 -25.929276 72.26044715 -25.9407959 70.44926453 C-25.96179983 66.65049101 -25.97349475 62.85180191 -25.98046875 59.05297852 C-25.99141792 54.20178586 -26.03943254 49.35172173 -26.09641266 44.50088215 C-26.13379847 40.75775476 -26.14408367 37.01489518 -26.1471405 33.27159691 C-26.15316776 31.48430417 -26.16913767 29.6970147 -26.19551086 27.90990639 C-26.42636738 11.05979469 -26.42636738 11.05979469 -21.10681152 4.45695496 C-15.15652965 -1.32895168 -7.9092125 -3.4973549 0 0 Z " fill="#FCFCFC" transform="translate(407.5,336.10546875)"/>
<path d="M0 0 C6.30224969 2.7682779 10.26939242 6.63746836 13 13 C13.37808481 15.86576157 13.55899988 18.34051034 13.53344727 21.19506836 C13.54637062 22.3770153 13.54637062 22.3770153 13.55955505 23.58283997 C13.58212365 26.168849 13.57549315 28.75376624 13.56640625 31.33984375 C13.57164605 33.14913756 13.57792384 34.95842864 13.58518982 36.76771545 C13.59557733 40.55287565 13.59105662 44.33765952 13.57641602 48.12280273 C13.55923438 52.95938126 13.58272409 57.79477107 13.61790562 62.631217 C13.63992875 66.36576624 13.63842623 70.10003321 13.6301403 73.83462715 C13.6293234 75.61711493 13.63613665 77.39962397 13.65091133 79.1820507 C13.77154324 96.3689001 13.77154324 96.3689001 8 103 C4.23690773 106.73971903 0.2126603 108.31397421 -5.0625 108.5625 C-11.24461748 108.22063175 -15.07262867 106.08364468 -19.3125 101.5 C-22.58885343 96.64614306 -23.29472509 93.16689136 -23.2746582 87.31323242 C-23.27976913 86.54360672 -23.28488007 85.77398102 -23.29014587 84.98103333 C-23.30403484 82.43909913 -23.30308527 79.89743637 -23.30078125 77.35546875 C-23.30466933 75.58433431 -23.30900423 73.81320079 -23.31376648 72.04206848 C-23.32122776 68.32904031 -23.32093865 64.61610722 -23.31567383 60.90307617 C-23.30988752 56.15516061 -23.32679025 51.4076362 -23.3500185 46.65978527 C-23.36478517 43.00081625 -23.36562341 39.3419407 -23.36250877 35.68294716 C-23.36302078 33.9331313 -23.36823586 32.18331005 -23.37832069 30.43352318 C-23.39072113 27.98041134 -23.38387162 25.52805187 -23.37231445 23.07495117 C-23.37995819 22.3583432 -23.38760193 21.64173523 -23.39547729 20.90341187 C-23.32986736 14.57118204 -21.78779616 10.07007976 -17.625 5.25 C-11.91791118 0.35820958 -7.54166098 -1.36510777 0 0 Z " fill="#FCFCFC" transform="translate(245,335)"/>
<path d="M0 0 C20.66257281 17.39829014 35.40503154 39.71895478 38.66015625 67 C39.49068528 76.91955804 39.49068528 76.91955804 38.9375 81.3125 C38.2775 81.9725 37.6175 82.6325 36.9375 83.3125 C33.40178571 82.77678571 33.40178571 82.77678571 31.9375 81.3125 C31.79927652 79.66917644 31.70408507 78.02222907 31.625 76.375 C29.73346291 52.57551088 20.75755453 31.41011319 3.9375 14.3125 C3.17695313 13.5390625 2.41640625 12.765625 1.6328125 11.96875 C-4.88553788 5.72823094 -12.11502452 1.43040963 -20.0625 -2.6875 C-21.01382813 -3.18378906 -21.96515625 -3.68007812 -22.9453125 -4.19140625 C-42.40910726 -13.6963206 -65.99067247 -14.19649399 -86.3671875 -7.62109375 C-99.08205897 -3.00166203 -109.99632874 3.2751041 -120.0625 12.3125 C-120.75859375 12.91449219 -121.4546875 13.51648438 -122.171875 14.13671875 C-139.45088589 30.06796679 -147.26223195 52.95613875 -149.3293457 75.75366211 C-149.85317409 81.10317409 -149.85317409 81.10317409 -152.0625 83.3125 C-155.59821429 82.77678571 -155.59821429 82.77678571 -157.0625 81.3125 C-157.21260957 52.67159397 -146.63331934 28.39730032 -126.875 7.75 C-92.73750687 -25.58813034 -37.87646507 -29.08478956 0 0 Z " fill="#282626" transform="translate(379.0625,234.6875)"/>
<path d="M0 0 C0 25.41 0 50.82 0 77 C-9.0084927 75.49858455 -16.41102661 70.2830059 -22 63 C-28.65324522 51.43566859 -31.87188015 39.12604263 -28.4375 25.82080078 C-24.38958575 14.70828619 -16.39636602 6.37107158 -6 1 C-3 0 -3 0 0 0 Z " fill="#FBFAFA" transform="translate(215,351)"/>
<path d="M0 0 C8.85605304 1.77121061 16.37886663 6.93056441 22 14 C23.88146025 16.9072564 25.52291072 19.86879201 27 23 C27.36609375 23.71800781 27.7321875 24.43601562 28.109375 25.17578125 C31.24764199 35.12739106 30.16160625 48.30178751 25.55078125 57.5234375 C23.08474507 61.46164138 20.35004856 64.78654141 17 68 C16.41992188 68.56589844 15.83984375 69.13179688 15.2421875 69.71484375 C10.82031835 73.76987622 6.20977597 77 0 77 C0 51.59 0 26.18 0 0 Z " fill="#FBFBFB" transform="translate(425,351)"/>
<path d="M0 0 C0.33 0 0.66 0 1 0 C1.66 4.62 2.32 9.24 3 14 C2.01 14 1.02 14 0 14 C0 9.38 0 4.76 0 0 Z " fill="#1F1C1B" transform="translate(411,302)"/>
</svg>
