<?xml version="1.0" encoding="UTF-8"?>
<svg version="1.1" xmlns="http://www.w3.org/2000/svg" width="640" height="640">
<path d="M0 0 C211.2 0 422.4 0 640 0 C640 211.2 640 422.4 640 640 C428.8 640 217.6 640 0 640 C0 428.8 0 217.6 0 0 Z " fill="#FEFEFE" transform="translate(0,0)"/>
<path d="M0 0 C0.45439453 1.23363281 0.45439453 1.23363281 0.91796875 2.4921875 C5.03921081 13.47371251 9.27740017 23.07934485 17 32 C17.58394531 32.67933594 18.16789063 33.35867187 18.76953125 34.05859375 C29.85446073 46.03031759 46.07124477 53.4409875 62.31640625 54.29296875 C81.62025321 54.85631059 98.96623644 50.28373562 113.6875 37.375 C115.15022801 35.94197205 116.59100853 34.48589549 118 33 C118.56847656 32.41605469 119.13695312 31.83210938 119.72265625 31.23046875 C127.99241271 22.19930249 132.02559808 11.35946081 136 0 C140.09651594 0.72507703 143.95878418 1.87300106 147.91796875 3.14453125 C148.90389763 3.46111946 148.90389763 3.46111946 149.90974426 3.78410339 C151.29778077 4.23073695 152.68536163 4.67878875 154.07250977 5.12817383 C156.16211207 5.80428548 158.25376894 6.47372171 160.34570312 7.14257812 C166.94231735 9.26472016 173.47454572 11.45848273 179.87402344 14.13037109 C182.24565544 15.10048515 184.64777291 15.95603906 187.0625 16.8125 C200.77851806 22.32895797 209.93406757 34.96823887 218.68017578 46.30419922 C221.24462702 49.59918226 223.91076431 52.81045624 226.5625 56.03515625 C234.1720555 65.29100981 241.73893738 74.57868148 249.0925293 84.03979492 C251.24094685 86.79647299 253.41620647 89.51572259 255.68359375 92.17578125 C256.50988281 93.14902344 257.33617187 94.12226563 258.1875 95.125 C258.92355469 95.97320312 259.65960938 96.82140625 260.41796875 97.6953125 C262 100 262 100 262 104 C260.2130721 105.9447732 258.49210585 107.60519238 256.5 109.3125 C255.94683105 109.80177979 255.39366211 110.29105957 254.82373047 110.79516602 C253.2241373 112.20664031 251.61306885 113.60397373 250 115 C249.31164062 115.61101562 248.62328125 116.22203125 247.9140625 116.8515625 C244.92840162 119.49824005 241.89670046 122.08947689 238.85546875 124.671875 C232.90072999 129.73653702 227.02309736 134.84784303 221.3125 140.1875 C206.79345624 153.73434541 206.79345624 153.73434541 200 157 C199.47567383 156.45472656 198.95134766 155.90945313 198.41113281 155.34765625 C196.03456786 152.88805342 193.6426141 150.44398925 191.25 148 C190.0125 146.71222656 190.0125 146.71222656 188.75 145.3984375 C187.95078125 144.58632813 187.1515625 143.77421875 186.328125 142.9375 C185.5949707 142.18339844 184.86181641 141.42929687 184.10644531 140.65234375 C181.92165734 138.58853795 181.92165734 138.58853795 178 139 C177.67 208.63 177.34 278.26 177 350 C105.06 350 33.12 350 -41 350 C-41.33 280.37 -41.66 210.74 -42 139 C-47.28805736 140.05761147 -49.03004517 141.52733137 -52.5 145.25 C-52.96019531 145.72824219 -53.42039062 146.20648438 -53.89453125 146.69921875 C-56.16252091 149.05665026 -58.39577442 151.43630553 -60.59375 153.859375 C-63 156 -63 156 -67 156 C-69.41015625 154.12890625 -69.41015625 154.12890625 -72.0625 151.5625 C-73.04592684 150.62913374 -74.03166115 149.6981935 -75.01953125 148.76953125 C-75.76710693 148.06497803 -75.76710693 148.06497803 -76.52978516 147.34619141 C-78.68520765 145.37259465 -80.96154076 143.56640038 -83.25 141.75 C-89.3003535 136.87152271 -94.9028887 131.55735983 -100.5546875 126.23046875 C-103.6743387 123.2928951 -106.85663408 120.44310489 -110.1015625 117.64453125 C-112.48583637 115.57914174 -114.83802594 113.47988072 -117.1875 111.375 C-117.98542969 110.66085938 -118.78335938 109.94671875 -119.60546875 109.2109375 C-122.13919231 106.87147986 -124.57679788 104.45333074 -127 102 C-121.10609723 94.41009664 -115.13024649 86.90075081 -109 79.5 C-104.2892654 73.81139727 -99.66035958 68.07221924 -95.11987305 62.24707031 C-91.02768952 57.00703343 -86.8413638 51.84627485 -82.63574219 46.69702148 C-79.61282965 42.99454298 -76.63253415 39.26502405 -73.6875 35.5 C-63.6835912 23.08350612 -52.95691962 16.50735797 -37.74609375 12.11328125 C-33.91762823 10.97552038 -30.3185939 9.57780459 -26.640625 8.0390625 C-21.97223313 6.20209173 -17.18698408 4.70022073 -12.41796875 3.1484375 C-9.08955129 2.07956513 -9.08955129 2.07956513 -6.30078125 0.8515625 C-4 0 -4 0 0 0 Z " fill="#FEFEFE" transform="translate(252,139)"/>
<path d="M0 0 C25.43615388 9.17194647 55.1299511 10.42124407 80.25 -0.625 C81.90128906 -1.42357422 81.90128906 -1.42357422 83.5859375 -2.23828125 C90.68583829 -4.55713246 97.0622286 -1.74091811 103.6875 0.875 C110.37828377 3.43524551 117.08955316 5.77066173 123.9375 7.875 C129.40901835 9.56442828 134.75265939 11.32443283 140.02734375 13.56640625 C142.52470083 14.54959073 145.02210899 15.42593113 147.56640625 16.27734375 C164.76159506 22.03579969 177.34760778 29.10437403 188.625 43.76953125 C191.41102879 47.38266234 194.29894795 50.90620841 197.1875 54.4375 C201.75652518 60.04419368 206.25902822 65.69695943 210.71020508 71.39746094 C214.75012561 76.55840653 218.88618331 81.63814893 223.03027344 86.71557617 C227.07296075 91.67754797 231.04219461 96.69233528 234.98120117 101.73681641 C237.83580991 105.38580128 240.74122146 108.98663272 243.6875 112.5625 C245.08364605 114.27057778 246.47950226 115.97889252 247.875 117.6875 C248.51050781 118.45191406 249.14601563 119.21632813 249.80078125 120.00390625 C250.36152344 120.70386719 250.92226563 121.40382813 251.5 122.125 C251.98726562 122.72183594 252.47453125 123.31867188 252.9765625 123.93359375 C253.875 125.6875 253.875 125.6875 253.71484375 127.703125 C252.73449978 130.01947262 251.62982594 131.26546795 249.8125 133 C248.86117187 133.91072266 248.86117187 133.91072266 247.890625 134.83984375 C245.3073019 137.20788992 242.68621654 139.52514421 240.03125 141.8125 C237.67537042 143.86109094 235.3699254 145.95953002 233.0625 148.0625 C229.52339998 151.26402433 225.90396894 154.31896063 222.1875 157.3125 C219.08908547 159.81723231 216.14203053 162.3214111 213.375 165.1875 C209.79054415 168.89997213 205.81947016 172.04738537 201.7890625 175.26171875 C199.73451281 176.97200743 197.81265739 178.66752665 195.8984375 180.51953125 C195.4127832 180.98512451 194.92712891 181.45071777 194.42675781 181.93041992 C193.06767876 183.24694055 191.72478144 184.58010531 190.3828125 185.9140625 C187.875 187.6875 187.875 187.6875 185.61791992 187.67358398 C181.71032887 186.26879891 179.30302733 183.60932798 176.48046875 180.68359375 C175.88825027 180.08571548 175.2960318 179.48783722 174.68586731 178.87184143 C172.80179531 176.96542983 170.93212846 175.04556809 169.0625 173.125 C167.78543146 171.82786347 166.50744661 170.53162838 165.22851562 169.23632812 C162.09995948 166.06373663 158.98424811 162.87901172 155.875 159.6875 C155.87168985 160.83493872 155.86837971 161.98237743 155.86496925 163.16458702 C155.78408025 191.04665046 155.69179728 218.92865828 155.58747292 246.81064415 C155.57748132 249.49160116 155.56753239 252.17255833 155.55761719 254.85351562 C155.55515119 255.5198981 155.5526852 256.18628057 155.55014448 256.87285645 C155.51038174 267.67382406 155.47765 278.47480217 155.44750018 289.27580039 C155.41642567 300.35222238 155.37768445 311.4286014 155.33220994 322.50497401 C155.30690132 328.72909706 155.28513304 334.95318824 155.27165604 341.17734909 C155.25887514 347.02954326 155.23686411 352.8816284 155.20761681 358.73376274 C155.19850982 360.88728727 155.19284358 363.04082937 155.19078636 365.19437218 C155.18748576 368.12338982 155.17206867 371.05209416 155.1534729 373.98104858 C155.15540763 374.84290437 155.15734237 375.70476016 155.15933573 376.59273279 C155.10324242 382.45925758 155.10324242 382.45925758 152.875 384.6875 C149.90870875 384.88552548 147.03564904 384.95664732 144.06811523 384.94146729 C143.14493468 384.94458727 142.22175413 384.94770725 141.27059841 384.95092177 C138.15819974 384.95893812 135.04599408 384.95256401 131.93359375 384.94628906 C129.70996994 384.94899731 127.48634703 384.9525573 125.26272583 384.95690918 C119.20916179 384.96605522 113.15566565 384.96247982 107.10210037 384.95615101 C100.77957216 384.95110245 94.45704992 384.95577926 88.13452148 384.95892334 C76.83408923 384.96279996 65.53369158 384.95656803 54.23326623 384.94640467 C43.98003973 384.93746874 33.7268585 384.93902065 23.47363281 384.94824219 C11.57684292 384.95893685 -0.31991944 384.96293372 -12.21671581 384.95701766 C-18.51795222 384.95389273 -24.81915742 384.9535029 -31.12039185 384.96009064 C-37.04317468 384.96584971 -42.96587165 384.96189366 -48.88864517 384.95030212 C-51.06798281 384.94764781 -53.24732762 384.94843367 -55.42666245 384.95282745 C-58.39057906 384.95825404 -61.35421663 384.95148408 -64.31811523 384.94146729 C-65.19027963 384.94592873 -66.06244402 384.95039017 -66.96103764 384.95498681 C-72.89669998 384.91580002 -72.89669998 384.91580002 -75.125 382.6875 C-75.33083467 379.75486041 -75.41006037 376.9155323 -75.4034729 373.98104858 C-75.4092653 373.06870756 -75.4150577 372.15636653 -75.42102563 371.21637881 C-75.43811271 368.14079939 -75.44090959 365.06536924 -75.44384766 361.98974609 C-75.45313983 359.79243091 -75.46330742 357.59511928 -75.47428894 355.39781189 C-75.50168317 349.41672367 -75.51676618 343.43565911 -75.52971697 337.45452452 C-75.54530642 331.20977773 -75.57210988 324.96507959 -75.5977478 318.72036743 C-75.63927965 308.2338414 -75.67385289 297.74730867 -75.703125 287.26074219 C-75.73329779 276.45831393 -75.76764218 265.65591225 -75.80761719 254.85351562 C-75.81007874 254.18794106 -75.81254028 253.52236649 -75.81507643 252.836623 C-75.82745078 249.49771612 -75.83991185 246.15880957 -75.85240483 242.81990314 C-75.95583523 215.10913819 -76.0450594 187.39834195 -76.125 159.6875 C-76.94701904 160.54093994 -77.76903809 161.39437988 -78.6159668 162.27368164 C-81.66643343 165.43265521 -84.7366399 168.571805 -87.81323242 171.70532227 C-89.14260779 173.06489227 -90.46655123 174.42979554 -91.78491211 175.80004883 C-93.67984308 177.76766989 -95.59341656 179.71534788 -97.51171875 181.66015625 C-98.09837814 182.27778336 -98.68503754 182.89541046 -99.28947449 183.53175354 C-103.43850384 187.68413932 -103.43850384 187.68413932 -106.86791992 187.70092773 C-110.04613744 186.27390979 -112.30345247 184.10174454 -114.75 181.6875 C-115.81667442 180.6707208 -116.885729 179.65643329 -117.95703125 178.64453125 C-118.49021973 178.14002441 -119.0234082 177.63551758 -119.57275391 177.11572266 C-121.77420887 175.09016249 -124.09495734 173.23432758 -126.4375 171.375 C-132.47596095 166.51797706 -138.0581575 161.21541197 -143.6953125 155.90625 C-147.934876 151.91500054 -152.2977631 148.09365907 -156.73144531 144.3203125 C-157.96077701 143.27362058 -159.18951499 142.22623102 -160.41772461 141.17822266 C-161.64840777 140.12878816 -162.88089365 139.08146272 -164.11547852 138.03662109 C-165.79951369 136.60234391 -167.46497552 135.14945626 -169.125 133.6875 C-170.11113281 132.82382812 -171.09726563 131.96015625 -172.11328125 131.0703125 C-174.125 128.6875 -174.125 128.6875 -174.234375 126.765625 C-172.60962761 123.72208411 -170.54435109 121.10181288 -168.375 118.4375 C-167.8905542 117.83196289 -167.4061084 117.22642578 -166.90698242 116.60253906 C-165.32062212 114.62456892 -163.72388381 112.655357 -162.125 110.6875 C-161.57602051 110.00945312 -161.02704102 109.33140625 -160.46142578 108.6328125 C-157.68473529 105.20340158 -154.90188235 101.77910679 -152.11328125 98.359375 C-149.76778467 95.48137546 -147.43898453 92.59094164 -145.125 89.6875 C-142.27244972 86.10830007 -139.39080822 82.55407196 -136.49902344 79.0065918 C-131.2745868 72.59705206 -126.10661455 66.15039471 -121.01513672 59.63476562 C-117.48716523 55.12744892 -113.88545016 50.6858228 -110.234375 46.27734375 C-108.8394255 44.56465575 -107.47392282 42.8275142 -106.140625 41.06640625 C-93.48320975 24.4345626 -76.40269945 18.46494282 -57.078125 12.58203125 C-52.48109616 11.16510104 -48.06617254 9.49948337 -43.62158203 7.66723633 C-39.14072351 5.90880828 -34.53669511 4.53745123 -29.9375 3.125 C-22.49025223 0.88795974 -22.49025223 0.88795974 -15.32421875 -2.08984375 C-9.66461264 -4.25279456 -5.39647595 -2.14135348 0 0 Z M-38.4375 11.875 C-43.60060657 13.77549699 -48.77326546 15.59524772 -54 17.3125 C-60.56479279 19.48627086 -60.56479279 19.48627086 -67.046875 21.890625 C-68.73289073 22.53714231 -70.43476849 23.14218647 -72.140625 23.734375 C-88.54732406 29.61026257 -98.77966489 40.37602941 -109.171875 53.87890625 C-112.25083268 57.87471371 -115.43136944 61.78312639 -118.625 65.6875 C-123.22774246 71.32545195 -127.76027434 77.01174727 -132.23999023 82.74780273 C-135.00979996 86.28798955 -137.82642999 89.7826437 -140.6875 93.25 C-145.65412254 99.27832809 -150.39350649 105.47432794 -155.125 111.6875 C-154.36832031 112.44289063 -153.61164063 113.19828125 -152.83203125 113.9765625 C-151.34480918 115.46593063 -149.8600409 116.95781782 -148.38671875 118.4609375 C-144.82580528 122.08370306 -141.13870728 125.48708714 -137.29296875 128.8046875 C-134.87657049 130.9032532 -132.49970976 133.041897 -130.125 135.1875 C-122.96893569 141.6388004 -115.68214362 147.92673473 -108.35986328 154.18774414 C-103.56270261 158.29634516 -98.82106319 162.46352782 -94.125 166.6875 C-89.34688775 165.28268297 -86.72653201 162.47242052 -83.5625 158.8125 C-81.753778 156.76742506 -79.94000712 154.7270162 -78.125 152.6875 C-77.43535156 151.90117187 -76.74570313 151.11484375 -76.03515625 150.3046875 C-74.125 148.6875 -74.125 148.6875 -70.125 148.6875 C-69.795 218.3175 -69.465 287.9475 -69.125 359.6875 C2.815 359.6875 74.755 359.6875 148.875 359.6875 C149.205 290.0575 149.535 220.4275 149.875 148.6875 C154.95301768 149.70310354 155.72278199 150.04208449 159.08203125 153.50390625 C159.83291016 154.26767578 160.58378906 155.03144531 161.35742188 155.81835938 C162.12634766 156.62080078 162.89527344 157.42324219 163.6875 158.25 C164.86989258 159.45946289 164.86989258 159.45946289 166.07617188 160.69335938 C168.01842916 162.68270169 169.95073661 164.68077271 171.875 166.6875 C175.88129253 164.80872416 178.9974371 162.20294201 182.3125 159.3125 C182.92649658 158.78229248 183.54049316 158.25208496 184.1730957 157.70581055 C188.94210204 153.56264843 193.58003525 149.28916925 198.19360352 144.97460938 C201.44741784 141.94964451 204.7769956 139.08782552 208.25 136.3125 C213.60964331 132.01534105 218.59474628 127.3733343 223.57373047 122.64697266 C227.23485123 119.17828409 230.96451607 115.87337665 234.875 112.6875 C233.5435435 109.809082 232.04201678 107.49553749 230.00390625 105.0703125 C229.43502686 104.38791504 228.86614746 103.70551758 228.2800293 103.00244141 C227.67199463 102.27976074 227.06395996 101.55708008 226.4375 100.8125 C221.90300648 95.36924244 217.41648938 89.90141344 213.0625 84.3125 C209.21240094 79.3775052 205.30126949 74.50183473 201.32421875 69.66796875 C198.30771285 65.99716492 195.30912665 62.31203642 192.3125 58.625 C191.75167725 57.93615723 191.19085449 57.24731445 190.61303711 56.53759766 C187.55933635 52.78189156 184.54614632 48.99928437 181.5625 45.1875 C172.21892952 33.56167953 162.82235149 27.27990862 148.5859375 22.86328125 C145.42208455 21.86083942 142.33186744 20.74948412 139.23144531 19.56860352 C134.03918057 17.62715268 128.79678539 15.82428957 123.5625 14 C122.38365234 13.58427734 121.20480469 13.16855469 119.99023438 12.74023438 C118.86294922 12.34771484 117.73566406 11.95519531 116.57421875 11.55078125 C115.04027466 11.01384644 115.04027466 11.01384644 113.4753418 10.46606445 C110.84840811 9.54408601 110.84840811 9.54408601 107.875 9.6875 C107.57432617 10.50988159 107.57432617 10.50988159 107.26757812 11.34887695 C103.30183434 22.06245519 99.53954903 32.01175807 91.875 40.6875 C91.21113281 41.47125 90.54726563 42.255 89.86328125 43.0625 C83.81227869 49.68392979 76.76467795 53.59929642 68.875 57.6875 C67.88371094 58.22246094 66.89242187 58.75742188 65.87109375 59.30859375 C51.54562234 65.90167251 31.56163979 65.83145923 16.875 60.6875 C8.41182328 57.12744632 0.74700187 52.82702105 -6.125 46.6875 C-6.81078125 46.08292969 -7.4965625 45.47835937 -8.203125 44.85546875 C-18.47381757 35.2315946 -24.00142327 22.90168907 -28.125 9.6875 C-32.26879992 9.6875 -34.59299722 10.43386574 -38.4375 11.875 Z " fill="#0E0E0E" transform="translate(280.125,129.3125)"/>
<path d="M0 0 C71.94 0 143.88 0 218 0 C218 4.29 218 8.58 218 13 C146.06 13 74.12 13 0 13 C0 8.71 0 4.42 0 0 Z " fill="#FAFAFA" transform="translate(211,495)"/>
<path d="M0 0 C1.2065625 0.33773437 2.413125 0.67546875 3.65625 1.0234375 C5.27081765 1.47401452 6.88540187 1.92453218 8.5 2.375 C9.68722656 2.70757812 9.68722656 2.70757812 10.8984375 3.046875 C19.25868269 5.3767794 27.3007426 7.52919148 36 8 C36.6595166 8.03931641 37.3190332 8.07863281 37.99853516 8.11914062 C55.79196403 9.04756185 73.22558505 5.93984995 90 0 C88.7960654 7.46439452 86.28631849 12.79258455 82 19 C81.55785156 19.64066406 81.11570312 20.28132813 80.66015625 20.94140625 C73.72480867 29.92720441 62.94401253 34.93509198 52 37 C37.70987883 38.50721676 25.97508213 35.18985961 14.5078125 26.296875 C7.58813723 19.95922849 2.56553879 12.04689996 0 3 C0 2.01 0 1.02 0 0 Z " fill="#FAFBFB" transform="translate(275,134)"/>
<path d="M0 0 C0.23074219 0.83402344 0.46148437 1.66804687 0.69921875 2.52734375 C4.90496252 17.0396533 11.44817774 28.67497646 24.875 36.4375 C37.98434467 43.5894827 51.60158201 45.18491793 66.0625 41.03125 C79.8936956 36.1756175 90.49875594 28.32856932 97 15 C99.26989052 9.99310322 100.91791388 5.41043062 102 0 C105.63 0.99 109.26 1.98 113 3 C112.08007878 16.49217791 103.91014972 30.0326335 94.22265625 39.16015625 C81.85980606 49.3937282 67.79095461 55.41443979 51.75 55.3125 C50.82195557 55.30686035 49.89391113 55.3012207 48.93774414 55.29541016 C30.43880973 54.96879668 15.71450199 47.11427733 2.875 34 C-3.83171387 26.18913202 -11 13.42983777 -11 3 C-9.73160474 2.49384702 -8.46016898 1.99530901 -7.1875 1.5 C-6.12595703 1.08234375 -6.12595703 1.08234375 -5.04296875 0.65625 C-3 0 -3 0 0 0 Z " fill="#F7F7F7" transform="translate(269,133)"/>
<path d="M0 0 C3 3 6 6 9 9 C7.5045292 12.59721356 5.47293692 14.63097221 2.5625 17.1875 C1.21091797 18.37666016 1.21091797 18.37666016 -0.16796875 19.58984375 C-2.82912947 21.85458328 -5.52737767 24.0598016 -8.25 26.25 C-14.00946426 30.90658812 -19.37948699 35.92834177 -24.77734375 40.9921875 C-27.81392859 43.83849255 -30.91453682 46.5983425 -34.06640625 49.31640625 C-37.29048686 52.12363603 -40.44305362 55.01040257 -43.60546875 57.88671875 C-46.00988609 60.00872492 -48.48011097 62.01720988 -51 64 C-54.81552617 62.50104329 -56.53745046 60.2013144 -59 57 C-59.66 56.67 -60.32 56.34 -61 56 C-59.90303373 52.7091012 -59.15198144 52.03203283 -56.5625 49.875 C-53.32723567 47.13168105 -50.14411801 44.34768648 -47 41.5 C-41.67665307 36.70092208 -36.31136661 31.9592205 -30.84765625 27.3203125 C-24.24896472 21.71026541 -17.76888285 16.01071735 -11.43212891 10.10571289 C-7.70213211 6.63233522 -3.90756309 3.27144816 0 0 Z " fill="#F7F8F8" transform="translate(518,246)"/>
<path d="M0 0 C4.03645582 2.86221413 7.87432219 5.74080072 11.3125 9.3125 C14.04814341 12.14035611 16.92398106 14.60895461 20 17.0625 C24.70572855 20.84388902 29.11669486 24.85071456 33.5 29 C38.64030321 33.86152245 43.88263013 38.47212347 49.4140625 42.890625 C53.75410392 46.43084006 57.87419911 50.21428682 62 54 C60.07712966 58.29378813 57.37521131 60.77153701 54 64 C50.32043709 62.43767979 47.83484207 60.16415918 44.9375 57.4375 C41.28859927 54.0431595 37.58418125 50.80023354 33.6875 47.6875 C27.9451666 43.05578982 22.599357 38.05176537 17.22265625 33.0078125 C14.18740982 30.16276199 11.08844883 27.4038352 7.9375 24.6875 C4.6778009 21.84840724 1.49257389 18.92635711 -1.703125 16.015625 C-3.73812959 14.22980465 -5.80900749 12.58796705 -8 11 C-6.63629701 8.00779732 -5.05091917 5.70973471 -2.875 3.25 C-2.33617188 2.63640625 -1.79734375 2.0228125 -1.2421875 1.390625 C-0.62730469 0.70226562 -0.62730469 0.70226562 0 0 Z " fill="#F7F7F7" transform="translate(121,246)"/>
</svg>
